<?xml version="1.0" encoding="UTF-8" standalone="no"?>
<svg
   data-name="Layer 1"
   width="892.34961"
   height="579.10968"
   viewBox="0 0 892.34963 579.10966"
   version="1.1"
   id="svg62"
   sodipodi:docname="runner.svg"
   xmlns:inkscape="http://www.inkscape.org/namespaces/inkscape"
   xmlns:sodipodi="http://sodipodi.sourceforge.net/DTD/sodipodi-0.dtd"
   xmlns="http://www.w3.org/2000/svg"
   xmlns:svg="http://www.w3.org/2000/svg">
  <defs
     id="defs66" />
  <sodipodi:namedview
     id="namedview64"
     pagecolor="#ffffff"
     bordercolor="#000000"
     borderopacity="0.25"
     inkscape:showpageshadow="2"
     inkscape:pageopacity="0.0"
     inkscape:pagecheckerboard="0"
     inkscape:deskcolor="#d1d1d1"
     showgrid="false" />
  <title
     id="title2">fitness_stats</title>
  <path
     d="m 683.65582,548.52762 46.45777,-69.08737 -46.36275,76.51984 0.0969,7.77406 q -5.08741,0.0388 -10.076,-0.16943 l 2.3042,-99.93046 -0.0631,-0.77093 0.085,-0.149 0.22054,-9.44283 -50.87674,-73.8671 50.81671,66.79969 0.18034,1.99592 1.74041,-75.50137 -43.9438,-76.58326 44.06895,63.31984 -0.46,-156.41937 10e-4,-0.52062 0.015,0.512 2.91713,123.2796 40.04952,-50.07621 -39.91841,60.69646 0.87411,67.53422 36.85379,-65.91084 -36.71835,75.83953 0.48658,37.55243 53.59536,-91.813 -53.43243,104.91341 z"
     fill="#e6e6e6"
     id="path4" />
  <path
     d="m 840.0055,550.70375 46.45782,-69.08736 -46.36281,76.51983 0.0969,7.77406 q -5.0874,0.0388 -10.076,-0.16943 l 2.3042,-99.93046 -0.0631,-0.77093 0.085,-0.149 0.22054,-9.44282 -50.87674,-73.86711 50.81671,66.79969 0.18033,1.99592 1.74045,-75.50131 -43.94379,-76.58326 44.06894,63.31984 -0.46,-156.41937 10e-4,-0.52062 0.015,0.512 2.91709,123.27952 40.04951,-50.07621 -39.91839,60.69646 0.8741,67.53422 36.85379,-65.91084 -36.71834,75.83953 0.48658,37.55243 53.59536,-91.813 -53.43241,104.91344 z"
     fill="#e6e6e6"
     id="path6" />
  <rect
     x="101.79647"
     y="13.25091"
     width="258.41495"
     height="349.5376"
     fill="#fff"
     id="rect10"
     style="fill:#e3e8f1;fill-opacity:1" />
  <path
     d="M 326.24487,74.55883 H 136.59119 a 5.79728,5.79728 0 0 1 0,-11.59455 h 189.65368 a 5.79728,5.79728 0 1 1 0,11.59455 z"
     fill="#e6e6e6"
     id="path12" />
  <path
     d="M 326.24487,134.18788 H 136.59119 a 5.79728,5.79728 0 0 1 0,-11.59455 h 189.65368 a 5.79728,5.79728 0 1 1 0,11.59455 z"
     fill="#e6e6e6"
     id="path14" />
  <path
     d="M 326.24487,193.81699 H 136.59119 a 5.79728,5.79728 0 0 1 0,-11.59455 h 189.65368 a 5.79728,5.79728 0 1 1 0,11.59455 z"
     fill="#e6e6e6"
     id="path16" />
  <path
     d="M 326.24487,253.44609 H 136.59119 a 5.79728,5.79728 0 0 1 0,-11.59455 h 189.65368 a 5.79728,5.79728 0 1 1 0,11.59455 z"
     fill="#e6e6e6"
     id="path18" />
  <path
     d="M 326.24487,313.0752 H 136.59119 a 5.79728,5.79728 0 0 1 0,-11.59455 h 189.65368 a 5.79728,5.79728 0 1 1 0,11.59455 z"
     fill="#e6e6e6"
     id="path20" />
  <path
     d="M 293.11759,74.55883 H 135.76301 a 5.79728,5.79728 0 1 1 0,-11.59455 h 157.35458 a 5.79728,5.79728 0 0 1 0,11.59455 z"
     fill="#6c63ff"
     id="path22" />
  <path
     d="M 244.25482,134.18788 H 135.76301 a 5.797275,5.797275 0 1 1 0,-11.59455 h 108.49181 a 5.79728,5.79728 0 1 1 0,11.59455 z"
     fill="#6c63ff"
     id="path24" />
  <path
     d="m 184.62575,193.81699 h -48.86274 a 5.79728,5.79728 0 1 1 0,-11.59455 h 48.86274 a 5.79728,5.79728 0 0 1 0,11.59455 z"
     fill="#6c63ff"
     id="path26" />
  <path
     d="M 308.02487,253.44609 H 135.76301 a 5.797275,5.797275 0 1 1 0,-11.59455 h 172.26186 a 5.797275,5.797275 0 0 1 0,11.59455 z"
     fill="#6c63ff"
     id="path28" />
  <path
     d="M 269.92849,313.0752 H 135.76301 a 5.79728,5.79728 0 1 1 0,-11.59455 h 134.16548 a 5.79728,5.79728 0 1 1 0,11.59455 z"
     fill="#6c63ff"
     id="path30" />
  <rect
     y="563.74023"
     width="888"
     height="2"
     fill="#3f3d56"
     id="rect32"
     x="0" />
  <path
     d="m 505.98787,270.90741 c 0,0 -6.28548,-46.0935 -16.76127,-33.52254 -10.47579,12.57096 0,31.42738 0,31.42738 l 8.38063,10.47579 8.38064,-6.28547 z"
     fill="#9f616a"
     id="path34" />
  <path
     d="m 531.12982,285.57352 c 0,0 -20.95158,-23.04675 -25.1419,-18.85643 -4.19032,4.19032 -16.76127,6.28548 -14.66611,14.66611 2.09516,8.38063 46.09349,35.6177 46.09349,35.6177 z"
     fill="#6c63ff"
     id="path36" />
  <path
     d="m 531.12982,285.57352 c 0,0 -20.95158,-23.04675 -25.1419,-18.85643 -4.19032,4.19032 -16.76127,6.28548 -14.66611,14.66611 2.09516,8.38063 46.09349,35.6177 46.09349,35.6177 z"
     opacity="0.1"
     id="path38" />
  <path
     d="m 650.55382,283.47836 v 16.76127 c 0,0 2.09516,37.71286 -10.47579,35.6177 -12.57095,-2.09516 -6.28548,-33.5225 -6.28548,-33.5225 l 2.09516,-18.85643 z"
     fill="#9f616a"
     id="path40" />
  <path
     d="m 644.26835,404.99757 c 0,0 18.85647,29.33226 25.1419,31.42738 6.28543,2.09512 39.808,20.95159 43.99834,39.808 l 29.33223,37.71288 -14.66611,18.85643 c 0,0 -67.04508,-71.2354 -85.90151,-77.52088 -18.85643,-6.28548 -37.71286,-37.71286 -37.71286,-37.71286 z"
     fill="#9f616a"
     id="path42" />
  <path
     d="m 495.51207,356.80892 c 0,0 -39.808,6.28547 -33.52254,31.42738 6.28546,25.14191 67.04508,77.52088 67.04508,77.52088 l 2.09521,12.57095 23.04675,4.19032 10.47579,-10.4758 -2.09515,-6.28547 c 0,0 -25.14196,-23.04675 -27.23712,-31.42735 -2.09516,-8.3806 -25.1419,-41.90317 -35.6177,-43.99833 l 14.66611,-8.38064 z"
     fill="#9f616a"
     id="path44" />
  <path
     d="m 736.45534,513.94583 c 0,0 -8.38064,-12.57095 4.19031,-10.4758 12.57095,2.09515 20.95159,4.19032 20.95159,12.571 0,8.38068 -10.47579,67.04508 -23.04675,62.85476 -12.57096,-4.19032 -2.09515,-23.04675 -2.09515,-23.04675 0,0 -6.28548,-16.76127 -10.4758,-18.85643 -4.19032,-2.09516 -4.19032,-12.57095 0,-12.57095 4.19032,0 12.57095,-6.28551 10.4758,-10.47583 z"
     fill="#2f2e41"
     id="path46" />
  <path
     d="m 558.36682,467.85233 c 0,0 0,-10.47579 8.38063,0 8.38063,10.47579 12.571,18.85643 4.19032,25.14191 -8.38068,6.28548 -37.71284,20.95159 -37.71284,20.95159 0,0 -31.42738,6.28547 -27.23706,-8.38064 0,0 20.95159,-10.47579 20.95159,-18.85643 0,-8.38064 0,-23.04674 6.28547,-18.85643 6.28547,4.19031 25.14189,6.2855 25.14189,0 z"
     fill="#2f2e41"
     id="path48" />
  <path
     d="m 598.17482,310.71542 c 0,0 29.33223,4.19032 27.23707,46.0935 0,0 37.71286,37.71286 27.23706,50.28381 -10.4758,12.57095 -33.52254,35.6177 -41.90317,29.33222 -8.38063,-6.28548 -33.52251,-54.47412 -33.52251,-54.47412 0,0 -58.66445,20.95159 -69.14024,10.4758 -10.47579,-10.47579 -20.95159,-35.6177 -20.95159,-35.6177 l 52.379,-27.23707 z"
     fill="#2f2e41"
     id="path50" />
  <circle
     cx="516.46368"
     cy="166.14948"
     r="25.141911"
     fill="#9f616a"
     id="circle52" />
  <path
     d="m 535.32009,168.24463 c 0,0 14.66611,23.04674 18.85643,25.1419 4.19032,2.09516 -29.33222,23.04675 -29.33222,23.04675 0,0 0,-27.23707 -10.4758,-33.52254 z"
     fill="#9f616a"
     id="path54" />
  <path
     d="m 537.41525,191.29137 c 0,0 33.52254,-10.47579 39.808,6.28548 6.28546,16.76127 20.95157,48.18865 18.85645,69.14024 -2.09512,20.95159 -6.28548,16.76127 0,23.04675 6.28548,6.28548 10.47579,2.09516 8.38063,10.47579 -2.09516,8.38063 -4.19032,8.38064 -2.09516,12.57095 2.09516,4.19031 -25.1419,18.85643 -48.18865,20.95159 l -23.0467,2.09516 c 0,0 0,-37.71286 -4.19031,-46.09349 -4.19031,-8.38063 -12.571,-25.14191 -12.571,-31.42739 v -16.63084 a 63.6067,63.6067 0 0 1 8.38063,-31.55779 v 0 c 0,0 12.57095,-18.85645 14.66611,-18.85645 z"
     fill="#6c63ff"
     id="path56" />
  <path
     d="m 562.55716,199.67201 c 0,0 77.52087,6.28547 85.90151,27.23706 8.38064,20.95159 12.57095,62.85476 4.19031,62.85476 -8.38064,0 -18.85643,4.19031 -20.95158,0 -2.09515,-4.19031 -10.4758,-46.0935 -12.571,-46.0935 -2.0952,0 -64.94988,-6.2855 -64.94988,-6.2855 0,0 -27.23706,-33.5225 8.38064,-37.71282 z"
     fill="#6c63ff"
     id="path58" />
  <path
     d="m 515.45348,159.91646 c 0,0 -6.67194,-11.59461 -15.01174,-1.52364 -8.3398,10.07097 -21.907,-8.43622 -19.82426,-12.38526 2.08274,-3.94904 9.4377,0.17757 22.04213,-3.94283 12.60443,-4.1204 36.88462,-12.51446 40.951,14.86728 4.06638,27.38174 -5.61826,24.51117 -5.61826,24.51117 0,0 -4.43915,-24.26318 -8.45126,-17.29375 l -4.01211,6.96943 -3.48019,0.85654 z"
     fill="#2f2e41"
     id="path60" />
</svg>
